Right_states
version=1
nRows=17
nColumns=41
inDegrees=yes

# SIMM Motion File Header:
name Right_states
datacolumns 41
datarows 17
otherdata 1
range 1.80742773 1.81675963
endheader
time	/jointset/sternoclavicular/sternoclavicular_r2/value	/jointset/sternoclavicular/sternoclavicular_r2/speed	/jointset/sternoclavicular/sternoclavicular_r3/value	/jointset/sternoclavicular/sternoclavicular_r3/speed	/jointset/unrotscap/unrotscap_r3/value	/jointset/unrotscap/unrotscap_r3/speed	/jointset/unrotscap/unrotscap_r2/value	/jointset/unrotscap/unrotscap_r2/speed	/jointset/acromioclavicular/acromioclavicular_r2/value	/jointset/acromioclavicular/acromioclavicular_r2/speed	/jointset/acromioclavicular/acromioclavicular_r3/value	/jointset/acromioclavicular/acromioclavicular_r3/speed	/jointset/acromioclavicular/acromioclavicular_r1/value	/jointset/acromioclavicular/acromioclavicular_r1/speed	/jointset/unrothum/unrothum_r1/value	/jointset/unrothum/unrothum_r1/speed	/jointset/unrothum/unrothum_r3/value	/jointset/unrothum/unrothum_r3/speed	/jointset/unrothum/unrothum_r2/value	/jointset/unrothum/unrothum_r2/speed	/jointset/shoulder0/elv_angle/value	/jointset/shoulder0/elv_angle/speed	/jointset/shoulder1/shoulder_elv/value	/jointset/shoulder1/shoulder_elv/speed	/jointset/shoulder1/shoulder1_r2/value	/jointset/shoulder1/shoulder1_r2/speed	/jointset/shoulder2/shoulder_rot/value	/jointset/shoulder2/shoulder_rot/speed	/jointset/elbow/elbow_flexion/value	/jointset/elbow/elbow_flexion/speed	/jointset/radioulnar/pro_sup/value	/jointset/radioulnar/pro_sup/speed	/jointset/radiocarpal/deviation/value	/jointset/radiocarpal/deviation/speed	/jointset/radiocarpal/flexion/value	/jointset/radiocarpal/flexion/speed	/jointset/wrist_hand/wrist_hand_r1/value	/jointset/wrist_hand/wrist_hand_r1/speed	/jointset/wrist_hand/wrist_hand_r3/value	/jointset/wrist_hand/wrist_hand_r3/speed
      1.80742773	     -2.90696780	     13.46273591	      1.23125436	     -5.70217952	     -1.23125436	      5.70217952	      2.90696780	    -13.46273591	     -0.58860185	      2.72593017	      4.75687308	    -22.03000876	      2.13818171	     -9.90233732	     -2.13818171	      9.90233732	     -4.75687308	     22.03000876	      0.58860185	     -2.72593017	    -32.43040149	     33.58133432	     12.01223670	    -55.63101543	     32.43040149	    -33.58133432	   -440.88912867	  -1018.74141302	    111.45537512	    754.30477898	  -2710.26730378	 -14355.40052937	      2.18728788	    -82.93437851	    -11.45292060	      0.66733992	     89.49319930	  -3054.73233528	   -328.10200664	     19.11788049
      1.80785623	     -2.90119453	     13.48106331	      1.22880908	     -5.70994215	     -1.22880908	      5.70994215	      2.90119453	    -13.48106331	     -0.58743288	      2.72964109	      4.74742589	    -22.05999915	      2.13393526	     -9.91581780	     -2.13393526	      9.91581780	     -4.74742589	     22.05999915	      0.58743288	     -2.72964109	    -32.41601495	     33.56628568	     11.98838030	    -55.70674832	     32.41601495	    -33.56628568	   -441.32484952	  -1013.45131389	    111.76101074	    672.32984971	  -2716.43573831	 -14435.60890120	      2.15140413	    -84.28528828	    -11.45516014	    -11.09989772	     88.17148888	  -3104.49056371	   -328.16616486	   -317.98864629
      1.80828472	     -2.89541741	     13.48029308	      1.22636216	     -5.70961591	     -1.22636216	      5.70961591	      2.89541741	    -13.48029308	     -0.58626313	      2.72948514	      4.73797238	    -22.05873877	      2.12968598	     -9.91525126	     -2.12968598	      9.91525126	     -4.73797238	     22.05873877	      0.58626313	     -2.72948514	    -32.40163692	     33.54185183	     11.96450794	    -55.70356555	     32.40163692	    -33.54185183	   -441.75630877	   -998.81127129	    112.03168721	    591.29281879	  -2722.63809522	 -14513.32103853	      2.11528265	    -84.05255525	    -11.46239939	    -22.63183266	     86.84102158	  -3095.91827900	   -328.37355418	   -648.35424699
      1.80903093	     -2.88537448	     13.42429566	      1.22210845	     -5.68589805	     -1.22210845	      5.68589805	      2.88537448	    -13.42429566	     -0.58422964	      2.71814680	      4.72153844	    -21.96710630	      2.12229903	     -9.87406310	     -2.12229903	      9.87406310	     -4.72153844	     21.96710630	      0.58422964	     -2.71814680	    -32.37662896	     33.48168222	     11.92300833	    -55.47217176	     32.37662896	    -33.48168222	   -442.48539481	   -950.39879953	    112.42169648	    455.51088486	  -2733.51476272	 -14634.54752105	      2.05378271	    -80.03445904	    -11.48645284	    -41.52162094	     84.57578665	  -2947.91923869	   -329.06263467	  -1189.50681916
      1.80977714	     -2.87540397	     13.28291340	      1.21788541	     -5.62601520	     -1.21788541	      5.62601520	      2.87540397	    -13.28291340	     -0.58221081	      2.68951977	      4.70522300	    -21.73575271	      2.11496536	     -9.77007125	     -2.11496536	      9.77007125	     -4.70522300	     21.73575271	      0.58221081	     -2.68951977	    -32.35167177	     33.40763337	     11.88180796	    -54.88794887	     32.35167177	    -33.40763337	   -443.16736017	   -872.54148152	    112.71457289	    332.14788858	  -2744.47089743	 -14723.28567177	      1.99691182	    -71.69822239	    -11.52377711	    -58.04857762	     82.48105403	  -2640.86959173	   -330.13189630	  -1662.96925228
      1.81072621	     -2.86294156	     12.94722966	      1.21260692	     -5.48383541	     -1.21260692	      5.48383541	      2.86294156	    -12.94722966	     -0.57968743	      2.62155064	      4.68482990	    -21.18645012	      2.10579880	     -9.52316352	     -2.10579880	      9.52316352	     -4.68482990	     21.18645012	      0.57968743	     -2.62155064	    -32.32001071	     33.31532717	     11.83031052	    -53.50082910	     32.32001071	    -33.31532717	   -443.93262493	   -733.02082686	    112.96649638	    205.70921471	  -2758.46935428	 -14758.27228773	      1.93613734	    -55.34713663	    -11.58709084	    -74.41474134	     80.24254024	  -2038.60800516	   -331.94570101	  -2131.82530615
      1.81153540	     -2.85263657	     12.49582322	      1.20824221	     -5.29264095	     -1.20824221	      5.29264095	      2.85263657	    -12.49582322	     -0.57760088	      2.53015002	      4.66796713	    -20.44778245	      2.09821910	     -9.19113748	     -2.09821910	      9.19113748	     -4.66796713	     20.44778245	      0.57760088	     -2.53015002	    -32.29307481	     33.26812813	     11.78772801	    -51.63551742	     32.29307481	    -33.26812813	   -444.46719791	   -584.56865581	    113.10248626	    137.50938195	  -2770.39052525	 -14688.69656784	      1.89858374	    -36.81932212	    -11.65130473	    -83.51907879	     78.85932364	  -1356.17069628	   -333.78529345	  -2392.64536174
      1.81215418	     -2.84504069	     12.03891357	      1.20502496	     -5.09911558	     -1.20502496	      5.09911558	      2.84504069	    -12.03891357	     -0.57606287	      2.43763511	      4.65553745	    -19.70010949	      2.09263204	     -8.85506364	     -2.09263204	      8.85506364	     -4.65553745	     19.70010949	      0.57606287	     -2.43763511	    -32.27248925	     33.27514519	     11.75634012	    -49.74746525	     32.27248925	    -33.27514519	   -444.79061787	   -459.78323989	    113.17964154	    116.75866892	  -2779.44276441	 -14557.10913779	      1.88083859	    -20.22359767	    -11.70429778	    -87.30614646	     78.20571448	   -744.89830209	   -335.30343262	  -2501.13685898
      1.81270906	     -2.83849311	     11.54925712	      1.20225171	     -4.89172022	     -1.20225171	      4.89172022	      2.83849311	    -11.54925712	     -0.57473712	      2.33848964	      4.64482320	    -18.89885066	      2.08781606	     -8.49490331	     -2.08781606	      8.49490331	     -4.64482320	     18.89885066	      0.57473712	     -2.33848964	    -32.25401300	     33.32950242	     11.72928408	    -47.72409600	     32.25401300	    -33.32950242	   -445.01407658	   -345.83953707	    113.24526244	    123.89440078	  -2787.47240351	 -14374.60183298	      1.87408159	     -3.94647850	    -11.75315213	    -88.44275051	     77.95683298	   -145.36113619	   -336.70300652	  -2533.69816643
      1.81326393	     -2.83223610	     10.99374383	      1.19960154	     -4.65643101	     -1.19960154	      4.65643101	      2.83223610	    -10.99374383	     -0.57347020	      2.22600950	      4.63458442	    -17.98982574	      2.08321380	     -8.08630286	     -2.08321380	      8.08630286	     -4.63458442	     17.98982574	      0.57347020	     -2.22600950	    -32.23549106	     33.44153568	     11.70342874	    -45.42859171	     32.23549106	    -33.44153568	   -445.17516941	   -235.97810207	    113.32167692	    155.50427603	  -2795.38353808	 -14130.28442455	      1.87662310	     13.21498302	    -11.80208815	    -87.64110169	     78.05044465	    486.74912210	   -338.10492012	  -2510.73261937
      1.81381881	     -2.82630201	     10.38851447	      1.19708814	     -4.40008442	     -1.19708814	      4.40008442	      2.82630201	    -10.38851447	     -0.57226867	      2.10346286	      4.62487406	    -16.99944694	      2.07884906	     -7.64113441	     -2.07884906	      7.64113441	     -4.62487406	     16.99944694	      0.57226867	     -2.10346286	    -32.21688896	     33.61939898	     11.67890775	    -42.92764953	     32.21688896	    -33.61939898	   -445.27778098	   -135.95820360	    113.42200115	    209.56004492	  -2803.14290644	 -13828.82166745	      1.88882013	     30.77127319	    -11.85010539	    -85.18350209	     78.49969946	   1133.40215373	   -339.48051286	  -2440.32757686
      1.81437369	     -2.82071273	      9.75469212	      1.19472078	     -4.13162719	     -1.19472078	      4.13162719	      2.82071273	     -9.75469212	     -0.57113695	      1.97512673	      4.61572793	    -15.96227946	      2.07473794	     -7.17493476	     -2.07473794	      7.17493476	     -4.61572793	     15.96227946	      0.57113695	     -1.97512673	    -32.19816916	     33.86565163	     11.65581161	    -40.30855478	     32.19816916	    -33.86565163	   -445.32878351	    -50.65286837	    113.55765266	    282.02234291	  -2810.72138308	 -13480.39932713	      1.91075038	     48.21454347	    -11.89637557	    -81.40032076	     79.30745916	   1775.89230916	   -340.80605583	  -2331.94741537
      1.81482929	     -2.81638830	      9.22933374	      1.19288916	     -3.90911017	     -1.19288916	      3.90911017	      2.81638830	     -9.22933374	     -0.57026134	      1.86875234	      4.60865157	    -15.10259909	      2.07155716	     -6.78851435	     -2.07155716	      6.78851435	     -4.60865157	     15.10259909	      0.57026134	     -1.86875234	    -32.18268449	     34.11630105	     11.63794210	    -38.13765724	     32.18268449	    -34.11630105	   -445.33846593	      6.02798430	    113.70168757	    351.43899074	  -2816.79285472	 -13169.51990839	      1.93590390	     62.12002947	    -11.93260331	    -77.53592914	     80.23394166	   2288.07481410	   -341.84390401	  -2221.24075025
      1.81528488	     -2.81230160	      8.71311006	      1.19115822	     -3.69046219	     -1.19115822	      3.69046219	      2.81230160	     -8.71311006	     -0.56943387	      1.76422755	      4.60196421	    -14.25786648	      2.06855124	     -6.40881286	     -2.06855124	      6.40881286	     -4.60196421	     14.25786648	      0.56943387	     -1.76422755	    -32.16707674	     34.40487151	     11.62105495	    -36.00450634	     32.16707674	    -34.40487151	   -445.32526659	     49.73778077	    113.87869008	    426.17681784	  -2822.71957815	 -12846.67023951	      1.96726050	     75.41244078	    -11.96694903	    -73.16339364	     81.38890349	   2777.67586230	   -342.82783663	  -2095.97683523
      1.81574048	     -2.80844585	      8.21721891	      1.18952511	     -3.48042610	     -1.18952511	      3.48042610	      2.80844585	     -8.21721891	     -0.56865316	      1.66381968	      4.59565478	    -13.44640539	      2.06571519	     -6.04406668	     -2.06571519	      6.04406668	     -4.59565478	     13.44640539	      0.56865316	     -1.66381968	    -32.15133034	     34.72345623	     11.60512211	    -33.95537395	     32.15133034	    -34.72345623	   -445.29510321	     80.58754411	    114.09032122	    502.92625829	  -2828.49843624	 -12522.12833997	      2.00449998	     87.92044418	    -11.99921270	    -68.41536981	     82.76054993	   3238.38471571	   -343.75212260	  -1959.95597184
      1.81619608	     -2.80480963	      7.75065356	      1.18798498	     -3.28281104	     -1.18798498	      3.28281104	      2.80480963	     -7.75065356	     -0.56791690	      1.56934969	      4.58970459	    -12.68293213	      2.06304062	     -5.70089071	     -2.06304062	      5.70089071	     -4.58970459	     12.68293213	      0.56791690	     -1.56934969	    -32.13543373	     35.06263393	     11.59009647	    -32.02742227	     32.13543373	    -35.06263393	   -445.25365307	     99.49478105	    114.33681269	    578.76742483	  -2834.13096623	 -12205.92773336	      2.04723527	     99.52161087	    -12.02924710	    -63.39103230	     84.33462419	   3665.69193907	   -344.61254475	  -1816.01930500
      1.81675963	     -2.80059308	      7.22336312	      1.18619905	     -3.05947569	     -1.18619905	      3.05947569	      2.80059308	     -7.22336312	     -0.56706313	      1.46258410	      4.58280475	    -11.82009019	      2.05993919	     -5.31304919	     -2.05993919	      5.31304919	     -4.58280475	     11.82009019	      0.56706313	     -1.46258410	    -32.11555244	     35.49582963	     11.57267273	    -29.84854102	     32.11555244	    -35.49582963	   -445.19432942	    108.67624528	    114.68841216	    667.93673632	  -2840.90485818	 -11839.87297214	      2.10705171	    112.50386151	    -12.06315272	    -56.89124276	     86.53785032	   4143.86880045	   -345.58386937	  -1629.81405075
